<?xml version="1.0" encoding="utf-8"?>
<!-- Generator: Adobe Illustrator 22.1.0, SVG Export Plug-In . SVG Version: 6.00 Build 0)  -->
<svg version="1.1" id="Layer_1" xmlns="http://www.w3.org/2000/svg" xmlns:xlink="http://www.w3.org/1999/xlink" x="0px" y="0px"
	 viewBox="0 0 287.2 118.5" style="enable-background:new 0 0 287.2 118.5;" xml:space="preserve">
<style type="text/css">
	.st0{fill:#48FFD5;}
</style>
<g>
	<path class="st0" d="M31.1,112.2c0-0.1,0-0.2,0-0.2h-3.6c-1.1,0-2.1-0.5-2.8-1.2c-0.7-0.7-1.2-1.7-1.2-2.8v-4.2
		c0-1.1,0.5-2.1,1.2-2.8c0.7-0.7,1.7-1.2,2.8-1.2h15.8v-4.1l-23.7,0c-1.1,0-2-0.4-2.7-1.1c-0.7-0.7-1.2-1.7-1.2-2.7v-4.6h-3.7
		c-1.1,0-2-0.4-2.7-1.1c-0.7-0.7-1.2-1.7-1.2-2.7l0-72c0-1.1,0.5-2,1.2-2.7C10,8,11,7.5,12.1,7.5l96.2,0c1.1,0,2,0.4,2.7,1.1
		c0.7,0.7,1.2,1.7,1.2,2.7V16h3.7c1.1,0,2,0.4,2.7,1.1c0.7,0.7,1.2,1.7,1.2,2.7v72.1c0,1.1-0.5,2-1.2,2.7c-0.7,0.7-1.7,1.1-2.7,1.1
		H83v4.1h8.2c1.1,0,2.1,0.5,2.8,1.2c0.7,0.7,1.2,1.7,1.2,2.8v4.2c0,0.1,0,0.2,0,0.2h0.6c1.1,0,4.1,0.1,4.1,0.1s-0.1,2.8-0.1,4
		 M91.2,102.9H27.5c-0.2,0-0.5,0.1-0.6,0.3c-0.2,0.2-0.3,0.4-0.3,0.6v4.2c0,0.2,0.1,0.5,0.3,0.6s0.4,0.3,0.6,0.3h63.7
		c0.2,0,0.4-0.1,0.6-0.2l0,0c0,0,0,0,0,0c0.2-0.2,0.3-0.4,0.3-0.6v-4.2c0-0.2-0.1-0.5-0.3-0.6C91.7,103,91.5,102.9,91.2,102.9z
		 M18,81.6L18,81.6c0.9,0,1.6-0.7,1.6-1.6s-0.7-1.6-1.6-1.6H18c-0.9,0-1.6,0.7-1.6,1.6S17.1,81.6,18,81.6z M11.3,72.9h97.8V11.4
		c0-0.2-0.1-0.3-0.2-0.4c-0.1-0.1-0.3-0.2-0.6-0.2H12.1c-0.2,0-0.4,0.1-0.6,0.2c-0.1,0.1-0.2,0.3-0.2,0.4L11.3,72.9L11.3,72.9z
		 M73.8,84.1L73.8,84.1L73.8,84.1h34.5c0.2,0,0.4-0.1,0.6-0.2c0.1-0.1,0.2-0.3,0.2-0.4v-7.3l-97.8,0v7.3c0,0.2,0.1,0.3,0.2,0.4
		c0.1,0.1,0.3,0.2,0.6,0.2h32.8h0L73.8,84.1L73.8,84.1z M72.3,87.2H46.5v12.5h25.8V87.2z"/>
</g>
<g>
	<g>
		<path class="st0" d="M79.6,30.2c-0.9-0.2-1.8-0.2-2.7-0.5c-0.5-0.2-1.1-0.5-1.6-0.9c-1-0.8-2-1.3-3.2-1.8c-0.6-0.2-1.3-0.6-2-0.5
			c-0.5,0.1-1,0.5-1.4,0.8c-1,0.7-1.8,1.2-2.7,1.8c-0.4,0.3-1.1,0.7-1.3,1c-0.1,0.2-0.1,0.6-0.2,0.8c-0.3,0.6-0.9,1.2-1.5,1.2
			c-0.7,0-1.5-1.2-1.2-2.2c0.1-0.5,0.9-0.7,1.5-1c1.7-0.9,3.1-1.9,4.5-3c0.9-0.7,2.1-1.2,3.7-1.3c1.6-0.1,3.7-0.1,5.1,0
			c1.2,0.1,2.2,0.1,3.3,0.3c6,1.2,12.1,2.3,17.8,3.9c0.6,0.2,2.4,0.5,2.5,1.1c0.1,0.4-0.2,1.2-0.3,1.8c-0.1,0.7-0.2,1.3-0.3,1.8
			c-0.1,0.5-0.5,1-0.8,1.5c-0.7,1.5-1.1,3.1-1.7,4.7c-0.8,2.1-1.7,4-2.9,5.7c-1.2,1.7-2.8,2.7-4.9,3.7c-0.9,0.4-2,0.9-3.2,1.2
			c-1.1,0.3-2.7,0.5-4,0.2c-1.8-0.4-2.5-2.1-3.2-3.7c-0.7-1.7-1.1-3.3-1.3-5.6c-2.2,0.1-2.7,1.7-3.4,3.2c-0.3,0.7-0.7,1.3-1,2
			c-1.3,2.6-2.6,5.3-4.5,7.2c-1,1-2.1,1.7-3.6,2.3c-2.7,1.1-5.6,2.1-8.9,2.8c-3,0.7-7.3,1.4-10.1-0.1c-1.8-0.9-2.6-3.2-3.3-5.2
			c-0.4-1-0.7-2-1-3.2c-0.3-1-0.6-2.3-1.3-3c-0.9-0.9-2.3-1.2-2.7-2.5c-0.7-0.3-1.3-0.7-1.9-1.1c-3.6-2.4-7.2-4.8-10.8-7.1
			c-0.6-0.4-1.4-0.8-1.8-1.2c-0.6-0.7-0.9-1.7-1.4-2.6c-0.2-0.4-0.5-0.8-0.7-1.1c-0.2-0.3-0.4-0.8-0.9-0.9c-0.3,0.3-0.1,0.8-0.2,1.3
			c0,0.5-0.1,1,0,1.5c0,0.5,0.2,0.9,0.2,1.3c0,0.4-0.2,0.9-0.7,0.8c-0.6,0-0.7-0.8-0.8-1.4c-0.2-0.7-0.4-1.3-0.3-1.8
			c0-0.4,0.3-1,0.4-1.7c0.2-1.3,0.1-2.5,1.2-2.8c0.6-0.2,1.4,0.3,2.1,0.5c0.6,0.2,1.3,0.4,1.9,0.6c0.7,0.3,1.4,0.7,2.1,1.1
			c2.1,1.2,3.8,2.6,5.8,3.8c2.7,1.7,5.4,3.3,7.7,5.2c6.1-1.8,13.8-2.9,21.3-3.5c3.4-0.3,6.9-0.1,10.1,0.3c4.6,0.6,8.3-1.3,11.4-2.6
			c1.7-0.7,3.4-1.4,5.1-2.1C84.8,31.1,82.2,30.7,79.6,30.2z M95.6,33.9c-1.5-0.3-3.1-0.6-4.5-0.9c0,0-0.1-0.1-0.2,0
			c-0.9,0.3-1.9,0.5-2.8,0.8c-1.7,0.6-3.3,1.5-4.7,2.5c-0.7,0.5-1.5,1.1-1.9,1.7c-1.3,2-1,5.9-0.4,8.4c0.2,0.9,0.3,1.5,0.7,2.2
			c2.5,1.1,5.7-0.2,7.3-1.4c1.3-0.9,2.2-2.3,3-3.6C93.8,40.8,94.9,37.4,95.6,33.9z M71.7,39.2c-5-1.6-12.2-0.7-17.5,0.4
			c-3.7,0.7-7.8,1.6-9,4.7c-0.7,1.7-0.8,4.2-0.6,6.5c0.2,2.1,0.9,4,1.7,5.4c2.4,2.2,8.3,1.3,11.6,0.3c2.1-0.6,3.4-1.1,4.8-1.8
			c1.6-0.8,3.8-1.6,4.3-3.4c0.1-0.5,0.1-1,0.2-1.5c0.4-3.2,1.6-6.1,3.5-7.9c0.4-0.4,0.9-0.6,1.1-1C72.1,40.3,71.9,39.7,71.7,39.2z"
			/>
	</g>
</g>
<g>
	<path class="st0" d="M145.1,46.4c0-0.7,0.6-1.2,1.2-1.2h2c0.7,0,1.2,0.5,1.2,1.2v1.9c0,3.1-2.6,5.8-5.8,5.8h-6.2
		c-3.2,0-5.8-2.6-5.8-5.8V24.8c0-3.2,2.6-5.8,5.8-5.8h6.2c3.2,0,5.8,2.6,5.8,5.8v1.9c0,0.7-0.5,1.2-1.2,1.2h-2
		c-0.6,0-1.2-0.5-1.2-1.2v-1.9c0-0.8-0.6-1.4-1.3-1.4h-6.2c-0.8,0-1.4,0.7-1.4,1.4v23.5c0,0.8,0.5,1.4,1.3,1.4h6.4
		c0.8,0,1.3-0.6,1.3-1.4V46.4z"/>
	<path class="st0" d="M169.6,19.6l4.6,4.6c0.8,0.8,1.2,1.9,1.2,3v25.7c0,0.7-0.5,1.2-1.1,1.2h-2.1c-0.7,0-1.2-0.5-1.2-1.2V42.2
		c0-0.7-0.6-1.3-1.3-1.3h-6.3c-0.8,0-1.4,0.6-1.4,1.3v10.6c0,0.7-0.5,1.2-1.2,1.2h-2c-0.6,0-1.2-0.5-1.2-1.2V27.2c0-1,0.5-2.2,1.3-3
		l4.8-4.6c0.8-0.8,1.8-1,2.9-1C167.6,18.6,168.8,18.9,169.6,19.6z M162.1,35.2c0,0.7,0.7,1.3,1.4,1.3h6.2c0.7,0,1.3-0.6,1.3-1.3V28
		c0-0.4-0.1-1-0.4-1.3l-2.8-2.8c-0.3-0.4-0.6-0.6-1.2-0.6c-0.7,0-1,0.3-1.3,0.6l-2.8,2.8c-0.3,0.3-0.4,0.9-0.4,1.3V35.2z"/>
	<path class="st0" d="M189.6,40.9c-0.8,0-1.4,0.6-1.4,1.3v10.6c0,0.7-0.5,1.2-1.1,1.2h-2c-0.7,0-1.2-0.5-1.2-1.2V24.8
		c0-3.2,2.5-5.8,5.7-5.8h6.1c3.1,0,5.7,2.6,5.7,5.8v10.4c0,2.1-1.1,3.7-2.7,4.9c-0.2,0.2-0.3,0.4,0,0.6l1.5,1.4
		c0.8,0.8,1.3,1.9,1.3,3v7.9c0,0.7-0.5,1.2-1.2,1.2h-2c-0.7,0-1.2-0.5-1.2-1.2v-7.4c0-0.5,0-1-0.4-1.3l-2.8-2.8
		c-0.3-0.3-0.6-0.5-1-0.5H189.6z M188.3,35.3c0,0.7,0.7,1.3,1.4,1.3h6.1c0.7,0,1.3-0.6,1.3-1.4V24.7c0-0.8-0.7-1.4-1.3-1.4h-6.1
		c-0.8,0-1.4,0.6-1.4,1.4V35.3z"/>
	<path class="st0" d="M223,46.4c0-0.7,0.6-1.2,1.2-1.2h2.1c0.6,0,1.1,0.5,1.1,1.2v6.5c0,0.6-0.5,1.2-1.1,1.2H211
		c-0.7,0-1.2-0.5-1.2-1.2V20.2c0-0.6,0.5-1.1,1.2-1.1h2c0.7,0,1.2,0.5,1.2,1.1v28.2c0,0.8,0.6,1.3,1.3,1.3h6.1
		c0.8,0,1.3-0.6,1.3-1.3V46.4z"/>
	<path class="st0" d="M252.3,48.3c0,3.1-2.6,5.8-5.8,5.8h-6.2c-3.1,0-5.8-2.6-5.8-5.8V24.7c0-3.2,2.6-5.7,5.8-5.7h6.2
		c3.1,0,5.8,2.5,5.8,5.7V48.3z M239,48.3c0,0.8,0.6,1.3,1.3,1.3h6.3c0.8,0,1.3-0.6,1.3-1.3V24.7c0-0.8-0.6-1.4-1.3-1.4h-6.2
		c-0.8,0-1.4,0.6-1.4,1.4V48.3z"/>
	<path class="st0" d="M274.8,27.8c-0.7,0-1.2-0.5-1.2-1.1v-1.9c0-0.8-0.6-1.4-1.3-1.4h-6.3c-0.8,0-1.3,0.6-1.3,1.4v7.1
		c0,0.8,0.6,1.3,1.3,1.3h6.3c3.2,0,5.7,2.5,5.7,5.7v9.5c0,3.2-2.5,5.8-5.7,5.8H266c-3.2,0-5.7-2.6-5.7-5.8v-1.9
		c0-0.7,0.5-1.2,1.2-1.2h2.1c0.7,0,1.2,0.5,1.2,1.2v1.9c0,0.8,0.6,1.4,1.3,1.4h6.3c0.8,0,1.3-0.6,1.3-1.3v-9.5
		c0-0.8-0.6-1.3-1.3-1.3H266c-3.2,0-5.7-2.5-5.7-5.7v-7.1c0-3.2,2.5-5.8,5.7-5.8h6.3c3.2,0,5.7,2.6,5.7,5.8v1.9
		c0,0.6-0.5,1.1-1.2,1.1H274.8z"/>
	<path class="st0" d="M131.8,70.2c0-0.6,0.6-1.1,1.2-1.1h10.7c3.2,0,5.7,2.6,5.7,5.8v23.5c0,3.1-2.5,5.8-5.7,5.8h-10.7
		c-0.6,0-1.2-0.5-1.2-1.2V70.2z M136.2,98.3c0,0.8,0.6,1.4,1.4,1.4h6c0.8,0,1.4-0.6,1.4-1.4V74.8c0-0.8-0.6-1.4-1.4-1.4h-6
		c-0.8,0-1.4,0.7-1.4,1.4V98.3z"/>
	<path class="st0" d="M164.6,98.3c0,0.8,0.6,1.4,1.3,1.4c0.7,0,1.2,0.5,1.2,1.2v2c0,0.7-0.5,1.2-1.2,1.2h-7c-0.7,0-1.2-0.5-1.2-1.2
		v-2c0-0.7,0.5-1.2,1.2-1.2c0.8,0,1.3-0.6,1.3-1.4V74.8c0-0.8-0.6-1.4-1.3-1.4c-0.7,0-1.2-0.5-1.2-1.1v-2.1c0-0.6,0.5-1.1,1.2-1.1h7
		c0.7,0,1.2,0.5,1.2,1.1v2.1c0,0.6-0.5,1.1-1.2,1.1c-0.8,0-1.3,0.7-1.3,1.4V98.3z"/>
	<path class="st0" d="M187.3,69.6l4.7,4.6c0.8,0.8,1.2,1.9,1.2,3v25.7c0,0.7-0.5,1.2-1.2,1.2h-2.1c-0.7,0-1.2-0.5-1.2-1.2V92.2
		c0-0.7-0.6-1.3-1.3-1.3h-6.3c-0.8,0-1.4,0.6-1.4,1.3v10.6c0,0.7-0.5,1.2-1.2,1.2h-2c-0.6,0-1.2-0.5-1.2-1.2V77.2c0-1,0.5-2.2,1.3-3
		l4.8-4.6c0.8-0.8,1.8-1,2.9-1C185.3,68.6,186.5,68.9,187.3,69.6z M179.8,85.2c0,0.7,0.7,1.3,1.4,1.3h6.2c0.7,0,1.3-0.6,1.3-1.3V78
		c0-0.4-0.1-1-0.4-1.3l-2.8-2.8c-0.3-0.4-0.6-0.6-1.2-0.6c-0.7,0-1,0.3-1.3,0.6l-2.8,2.8c-0.3,0.3-0.4,0.9-0.4,1.3V85.2z"/>
	<path class="st0" d="M201.4,98.9c0-0.3,0.3-1.3,0.6-1.8L213.9,75c0.5-0.8,0.1-1.6-1-1.6h-5.8c-0.8,0-1.4,0.6-1.4,1.4v1.9
		c0,0.6-0.5,1.1-1.2,1.1h-2c-0.6,0-1.2-0.5-1.2-1.1v-6.5c0-0.6,0.5-1.1,1.2-1.1h15.4c0.7,0,1.2,0.5,1.2,1.1v4c0,0.3-0.3,1.3-0.6,1.8
		l-11.9,22.1c-0.5,0.8-0.1,1.6,1,1.6h5.8c0.8,0,1.4-0.6,1.4-1.3v-2c0-0.6,0.5-1.2,1.2-1.2h2c0.6,0,1.2,0.5,1.2,1.2v6.5
		c0,0.7-0.5,1.2-1.2,1.2h-15.4c-0.7,0-1.2-0.5-1.2-1.2V98.9z"/>
</g>
</svg>
