<svg xmlns="http://www.w3.org/2000/svg" viewBox="0 0 81.75 34.96"><defs><style>.cls-1{fill:#48ffd5;}</style></defs><title>glasses</title><g id="Layer_2" data-name="Layer 2"><g id="Layer_1-2" data-name="Layer 1"><path class="cls-1" d="M61.13,5.68a25.58,25.58,0,0,1-2.7-.5,6.47,6.47,0,0,1-1.6-.9,12.57,12.57,0,0,0-3.2-1.8,4.55,4.55,0,0,0-2-.5,3.92,3.92,0,0,0-1.4.8c-1,.7-1.8,1.2-2.7,1.8a7.34,7.34,0,0,0-1.3,1c-.1.2-.1.6-.2.8a2,2,0,0,1-1.5,1.2c-.7,0-1.5-1.21-1.2-2.21.1-.5.9-.7,1.5-1a29.35,29.35,0,0,0,4.5-3A6.45,6.45,0,0,1,53,.08a39.42,39.42,0,0,1,5.1,0c1.2.1,2.2.1,3.3.29,6,1.21,12.1,2.3,17.8,3.9.6.2,2.4.5,2.5,1.1a6.66,6.66,0,0,1-.3,1.8q-.15,1.05-.3,1.8a5.48,5.48,0,0,1-.8,1.5c-.7,1.5-1.1,3.1-1.7,4.7a25.44,25.44,0,0,1-2.9,5.7,11.54,11.54,0,0,1-4.9,3.71,19.55,19.55,0,0,1-3.2,1.2,8.88,8.88,0,0,1-4,.2c-1.8-.4-2.5-2.1-3.2-3.7a17.74,17.74,0,0,1-1.3-5.6c-2.2.1-2.7,1.7-3.4,3.2-.3.7-.7,1.3-1,2-1.3,2.6-2.6,5.3-4.5,7.2a10.13,10.13,0,0,1-3.6,2.3,51.7,51.7,0,0,1-8.9,2.8c-3,.7-7.3,1.4-10.1-.1-1.8-.9-2.6-3.2-3.3-5.2a24.15,24.15,0,0,1-1-3.2,7.41,7.41,0,0,0-1.3-3c-.9-.9-2.3-1.2-2.7-2.5a11.78,11.78,0,0,1-1.9-1.1c-3.6-2.4-7.2-4.8-10.8-7.1a14,14,0,0,1-1.8-1.2,15.91,15.91,0,0,1-1.4-2.6,10.54,10.54,0,0,0-.7-1.1c-.2-.3-.4-.8-.9-.9-.3.3-.1.8-.2,1.3a7.52,7.52,0,0,0,0,1.5c0,.5.2.9.2,1.3s-.2.9-.7.8-.7-.8-.8-1.4A4.23,4.23,0,0,1,0,7.88c0-.4.3-1,.4-1.7.2-1.3.1-2.5,1.2-2.8.6-.2,1.4.3,2.1.5s1.3.4,1.9.6a21.16,21.16,0,0,1,2.1,1.1c2.1,1.2,3.8,2.6,5.8,3.8a73.91,73.91,0,0,1,7.7,5.2,110.14,110.14,0,0,1,21.3-3.5,48.35,48.35,0,0,1,10.1.3c4.6.6,8.3-1.3,11.4-2.6l5.1-2.1A51.45,51.45,0,0,1,61.13,5.68Zm16,3.7c-1.5-.3-3.1-.6-4.5-.9a.14.14,0,0,0-.2,0c-.9.3-1.9.5-2.8.8a18.88,18.88,0,0,0-4.7,2.5,7.72,7.72,0,0,0-1.9,1.7c-1.3,2-1,5.9-.4,8.4a7.11,7.11,0,0,0,.7,2.2c2.5,1.1,5.7-.2,7.3-1.4a11.55,11.55,0,0,0,3-3.6A30.29,30.29,0,0,0,77.13,9.38Zm-23.9,5.3c-5-1.6-12.2-.7-17.5.4-3.7.7-7.8,1.6-9,4.7a15.06,15.06,0,0,0-.6,6.5,13.74,13.74,0,0,0,1.7,5.4c2.4,2.2,8.3,1.3,11.6.3a25.66,25.66,0,0,0,4.8-1.8c1.6-.8,3.8-1.6,4.3-3.4.1-.5.1-1,.2-1.5a13.16,13.16,0,0,1,3.5-7.9c.4-.4.9-.6,1.1-1A2,2,0,0,0,53.23,14.68Z"/></g></g></svg>