<svg xmlns="http://www.w3.org/2000/svg" viewBox="0 0 800 500"><defs><style>.cls-1{fill:#7eccbc;}</style></defs><title>pattern</title><g id="Layer_2" data-name="Layer 2"><g id="Layer_4" data-name="Layer 4"><path class="cls-1" d="M164.75,1.65h0c0,.13.05.26.08.39h0C164.8,1.9,164.77,1.77,164.75,1.65Z"/><path class="cls-1" d="M165.11,3c0-.09-.06-.18-.1-.27C165.05,2.79,165.08,2.88,165.11,3Z"/><path class="cls-1" d="M165.39,3.61l-.12-.26Z"/><path class="cls-1" d="M164.75,1.64c0-.1,0-.19,0-.28C164.72,1.45,164.73,1.54,164.75,1.64Z"/><path class="cls-1" d="M165.43,3.7a.36.36,0,0,0,0-.09h0A.36.36,0,0,1,165.43,3.7Z"/><path class="cls-1" d="M164.67.92a1.94,1.94,0,0,1,0-.24A1.94,1.94,0,0,0,164.67.92Z"/><path class="cls-1" d="M165.11,3h0c0,.13.11.26.16.38h0C165.22,3.23,165.16,3.1,165.11,3Z"/><path class="cls-1" d="M164.67,1v0c0,.15,0,.29,0,.44h0Z"/><path class="cls-1" d="M164.66.16V0c0,.23,0,.45,0,.68h0C164.65.5,164.65.33,164.66.16Z"/><path class="cls-1" d="M164.9,2.32h0c0,.12.07.25.11.38h0C165,2.57,164.93,2.45,164.9,2.32Z"/><path class="cls-1" d="M164.9,2.32c0-.1-.05-.19-.07-.29C164.85,2.13,164.87,2.22,164.9,2.32Z"/><path class="cls-1" d="M19.26,7.4a7,7,0,0,0,3.27-.82l28.71,28.7a6.92,6.92,0,0,0,9.37,9.37l28.7,28.7,0-.07a6.89,6.89,0,0,0,0,6.61l3.27-3.27h0l-3.27,3.27L60.61,108.6A6.92,6.92,0,0,0,51.24,118l3.27-3.27h0L51.24,118l-28.71,28.7a6.92,6.92,0,1,0,2.83,2.83l28.71-28.71a6.93,6.93,0,0,0,6.54,0l28.7,28.71,0-.06a6.88,6.88,0,0,0-.86,3.33,7,7,0,0,0,.82,3.27l-28.7,28.71a6.92,6.92,0,1,0,0,12.19l28.7,28.71a.35.35,0,0,0,0-.08,7,7,0,0,0-.87,3.35,6.92,6.92,0,1,0,13-3.35.35.35,0,0,1,.05.08l28.7-28.71a6.91,6.91,0,0,0,9.37-9.36l28.71-28.71a6.93,6.93,0,0,0,6.54,0l28.7,28.71a6.93,6.93,0,0,0,0,6.53l-28.7,28.71a6.92,6.92,0,0,0-9.37,9.37l-28.71,28.7a6.92,6.92,0,1,0,0,12.2l28.7,28.7a6.54,6.54,0,0,0-.44,1,6.92,6.92,0,0,0,9.81,8.35l28.7,28.71a6.93,6.93,0,0,0,9.37,9.37l28.71,28.7a6.92,6.92,0,1,0,2.83-2.83l-28.71-28.7a6.92,6.92,0,0,0-9.37-9.37l-28.7-28.71q.19-.37.36-.78a7.09,7.09,0,0,0,.46-2.49,7,7,0,0,0-.82-3.27l28.7-28.7a6.92,6.92,0,0,0,9.37-9.37L244.44,235a6.91,6.91,0,0,0,6.53,0l28.71,28.7a7,7,0,0,0-.36,5.76,6.91,6.91,0,0,0,.36.78L251,299a6.93,6.93,0,0,0-8.16,1.2,6.92,6.92,0,0,0,4.9,11.81,6.83,6.83,0,0,0,3.26-.82l28.71,28.71a6.92,6.92,0,1,0,2.83-2.83L253.8,308.33a6.89,6.89,0,0,0,0-6.54l28.71-28.7a6.91,6.91,0,0,0,8.16-1.21l.13-.12a6.93,6.93,0,0,0,1.08-8l32-32,32,32v0a7.4,7.4,0,0,0-.38.87,1.59,1.59,0,0,0-.07.2,7.49,7.49,0,0,0-.24.9c0,.05,0,.1,0,.16a6.11,6.11,0,0,0-.09.86s0,.09,0,.13c0,.31,0,.63.05.94l0,.2a9.37,9.37,0,0,0,.19.92l0,.09a5,5,0,0,0,.32.84,1.11,1.11,0,0,0,.07.16,6.8,6.8,0,0,0,.47.83l.12.16a6.71,6.71,0,0,0,.64.79l.1.09a6.91,6.91,0,0,0,11-8.16L396.73,235a7,7,0,0,0,3.27.82,6.92,6.92,0,1,0-3.27-13L368,194.11a6.91,6.91,0,0,0-6.1-10.18,6.84,6.84,0,0,0-3.27.82l-34.81-34.81L321,152.77l34.81,34.81a6.92,6.92,0,0,0,9.37,9.36l28.7,28.71a7,7,0,0,0,0,6.54l-28.7,28.7h0a8.63,8.63,0,0,0-.94-.41l-.29-.09c-.24-.07-.48-.13-.73-.18l-.29,0a7,7,0,0,0-1-.09,6.64,6.64,0,0,0-.77.05l-.23,0-.54.1-.26.07a4.64,4.64,0,0,0-.53.16l-.21.08a6.43,6.43,0,0,0-.71.32h0l-34.81-34.8L321,228.92l-32,32a6.91,6.91,0,0,0-6.62.05l.08-.05-28.71-28.7A6.92,6.92,0,0,0,247.71,222a6.84,6.84,0,0,0-3.27.82l-28.71-28.71a6.92,6.92,0,0,0-9.37-9.36L177.66,156a6.92,6.92,0,0,0-9.37-9.37L139.58,118a6.94,6.94,0,0,0,0-6.62l0,.08,28.71-28.71a6.93,6.93,0,0,0,6.54,0l28.7,28.71a7,7,0,0,0-.82,3.27,6.88,6.88,0,0,0,1.46,4.24,5.77,5.77,0,0,0,.57.65,6.93,6.93,0,0,0,8.16,1.2l28.71,28.71a6.92,6.92,0,0,0,6.09,10.19h0a7.07,7.07,0,0,0,2.48-.46,6.91,6.91,0,0,0,.78-.36l28.71,28.71a6.92,6.92,0,1,0,2.83-2.83L253.8,156a6.89,6.89,0,0,0,0-6.54l28.71-28.71a6.92,6.92,0,1,0,0-12.19L253.8,79.89a6.89,6.89,0,0,0,0-6.54l32-32,32,32a6.93,6.93,0,1,0,2.83-2.82l-32-32-2.83-2.83L283,38.55l-32,32a6.9,6.9,0,0,0-3.27-.82h0a7,7,0,0,0-1.65.2h0a6.74,6.74,0,0,0-1.56.61L215.73,41.82a6.83,6.83,0,0,0,.77-2.43,7.89,7.89,0,0,0,.05-.84,6.87,6.87,0,0,0-.82-3.27l28.71-28.7a7,7,0,0,0,3.27.82,6.9,6.9,0,0,0,4.89-2,6.89,6.89,0,0,0,2-4.9c0-.15,0-.31,0-.47H240.81a7,7,0,0,0,.8,3.75L212.9,32.45l0,0a6.43,6.43,0,0,0-.71-.32l-.15,0a4.49,4.49,0,0,0-.59-.19l-.24-.06-.55-.1-.22,0a6.64,6.64,0,0,0-.77-.05h0a7,7,0,0,0-3.27.82L177.65,3.75a6.88,6.88,0,0,0,.8-3.75H164.66V.16c0,.17,0,.34,0,.51a2.64,2.64,0,0,0,0,.28l0,.4c0,.1,0,.2.05.3s.05.25.07.38.05.19.08.29.07.25.11.37.07.19.1.28.11.26.16.38l.12.26a7,7,0,0,0,1.28,1.76,6.9,6.9,0,0,0,4.89,2,7,7,0,0,0,3.27-.82l28.7,28.7a7.23,7.23,0,0,0-.61,1.6,6.7,6.7,0,0,0-.21,1.67,7,7,0,0,0,.82,3.27l-28.7,28.71a6.92,6.92,0,0,0-9.37,9.36l3.27-3.27h0l-3.27,3.27-28.7,28.71.07,0a6.92,6.92,0,0,0-6.68,0l.06,0-28.7-28.71a6.89,6.89,0,0,0-.05-6.61l.05.07,28.7-28.7a6.92,6.92,0,1,0,3.27-13,7,7,0,0,0-3.27.82l-28.7-28.7a7,7,0,0,0,.81-3.28c0-.15,0-.31,0-.47H88.52c0,.16,0,.32,0,.47a6.89,6.89,0,0,0,2,4.9,6.9,6.9,0,0,0,4.89,2,7,7,0,0,0,3.27-.82l28.71,28.7a6.89,6.89,0,0,0,0,6.54L98.68,70.53l.08,0a6.94,6.94,0,0,0-6.69,0l.07,0L63.44,41.82a6.92,6.92,0,0,0-9.37-9.37L25.36,3.75A7,7,0,0,0,26.16,0H12.37a7,7,0,0,0,.8,3.75L16.44.48h0L13.17,3.75,0,16.91v5.66l16-16A7,7,0,0,0,19.26,7.4ZM57.34,117.53l2.83-2.83h0ZM203.53,270.26,174.83,299a6.92,6.92,0,0,0-6.61,0l.07,0-28.71-28.71a6.89,6.89,0,0,0,0-6.54L168.29,235a6.93,6.93,0,0,0,6.54,0l28.7,28.7.05-.07a6.89,6.89,0,0,0-.05,6.61Zm2.83-73.32a6.93,6.93,0,0,0,6.54,0l28.71,28.71a7,7,0,0,0,0,6.54l-28.71,28.7a6.89,6.89,0,0,0-6.61.05l.07-.05-28.7-28.7a7,7,0,0,0,0-6.54ZM250.19,83.08a5.51,5.51,0,0,0,.78-.36l28.71,28.71a7,7,0,0,0,0,6.54L251,146.67a7,7,0,0,0-3.27-.82h0a6.84,6.84,0,0,0-1.68.21h0a6.29,6.29,0,0,0-1.56.6L215.73,118a7,7,0,0,0,0-6.54l28.71-28.71a6.72,6.72,0,0,0,1.59.62,7.26,7.26,0,0,0,1.67.2h0A6.85,6.85,0,0,0,250.19,83.08Zm-5.31-6.46h0l2.83,2.83-2.83-2.83-3.27,3.27Zm-67.22-3.27,28.7-28.7a6.93,6.93,0,0,0,6.54,0l28.71,28.7a6.9,6.9,0,0,0-.82,3.27,6,6,0,0,0,.05.85,6.78,6.78,0,0,0,.77,2.42L212.9,108.6l0,0c-.23-.12-.47-.23-.71-.33l-.15,0a5.76,5.76,0,0,0-.59-.18,2.1,2.1,0,0,0-.24-.06,4.86,4.86,0,0,0-.55-.1l-.22,0a6.64,6.64,0,0,0-.77,0h0a6.9,6.9,0,0,0-3.27.82l-28.7-28.71A7,7,0,0,0,177.66,73.35Zm-47.45,47.44a7,7,0,0,0,6.55,0l28.7,28.71a7,7,0,0,0,0,6.54l3.27-3.27h0L165.46,156l-28.7,28.71a6.91,6.91,0,0,0-9.37,9.36L98.68,222.82l.08.05a6.88,6.88,0,0,0-6.7,0l.08-.05-28.7-28.71a6.93,6.93,0,0,0,0-6.53l28.7-28.71a7,7,0,0,0,3.27.82,6.92,6.92,0,0,0,6.06-10.26.43.43,0,0,0,0,.07ZM98.68,82.72l28.71,28.71a6.89,6.89,0,0,0,0,6.54l-28.71,28.7.07.05a6.85,6.85,0,0,0-6.68,0l.07-.05L63.44,118a7,7,0,0,0,0-6.54l28.7-28.71a6.93,6.93,0,0,0,6.54,0Z"/><path class="cls-1" d="M323.85,7.4a7,7,0,0,0,3.27-.82l28.71,28.7h0a7.75,7.75,0,0,0-.39.89l-.06.18a7.64,7.64,0,0,0-.24.91s0,.1,0,.15a6.42,6.42,0,0,0-.09.87c0,.05,0,.09,0,.13,0,.31,0,.63.05.94l0,.19c.05.32.11.62.19.93l0,.09a5,5,0,0,0,.32.84,1.11,1.11,0,0,0,.07.16,5.69,5.69,0,0,0,.47.83l.12.16a6.71,6.71,0,0,0,.64.79l.1.09a6.9,6.9,0,0,0,4.89,2,7.89,7.89,0,0,0,.84,0,7.17,7.17,0,0,0,1.64-.41,6.2,6.2,0,0,0,.79-.36l28.7,28.7a7,7,0,0,0,0,6.54L365.2,108.6a6.92,6.92,0,1,0-3.27,13,7,7,0,0,0,3.27-.81l28.7,28.7a6.92,6.92,0,1,0,2.83-2.83L368,118a7,7,0,0,0,0-6.54l28.7-28.71a6.93,6.93,0,0,0,6.54,0L432,111.43v0a6.43,6.43,0,0,0-.32.71,1.72,1.72,0,0,0-.07.21,4.68,4.68,0,0,0-.17.53c0,.09,0,.18-.07.26a5.07,5.07,0,0,0-.09.54c0,.07,0,.15,0,.23a6.62,6.62,0,0,0,0,.77,6.93,6.93,0,0,0,10.18,6.1l28.71,28.7a6.92,6.92,0,0,0,6.1,10.19,6.56,6.56,0,0,0,1.32-.13,6.83,6.83,0,0,0,3.57-1.9,6.91,6.91,0,0,0,1.2-8.16L511,120.79a6.9,6.9,0,0,0,3.27.82,7,7,0,0,0,3.27-.81l28.71,28.7a.75.75,0,0,0-.06.13c0,.09-.09.19-.13.28s-.19.44-.27.66l-.09.31a6.43,6.43,0,0,0-.17.76c0,.07,0,.14,0,.22a7.93,7.93,0,0,0-.06,1c0,.07,0,.14,0,.21a6.87,6.87,0,0,0,.08.78,2.87,2.87,0,0,0,0,.31c.05.23.11.47.18.7l.09.28a6.81,6.81,0,0,0,.41.92l-28.71,28.71a6.91,6.91,0,1,0,1.62,11,6.94,6.94,0,0,0,1.21-8.17l28.7-28.7a7,7,0,0,0,3.27.82,6.92,6.92,0,0,0,6.1-10.19l34.81-34.8-2.83-2.83-34.81,34.8a7,7,0,0,0-3.27-.82,6.47,6.47,0,0,0-.76.05l-.24,0-.53.1-.26.06q-.27.07-.54.18l-.2.07a6.43,6.43,0,0,0-.71.32h0L520.32,118a6.92,6.92,0,0,0-6.1-10.19,6.87,6.87,0,0,0-3.27.82L482.24,79.89a6.91,6.91,0,0,0-6.09-10.18,6.84,6.84,0,0,0-3.27.82L444.17,41.82a6.92,6.92,0,0,0-6.1-10.19,7,7,0,0,0-3.27.82L406.1,3.75A7.06,7.06,0,0,0,406.9,0H393.1a7.06,7.06,0,0,0,.8,3.75l-28.7,28.7a.05.05,0,0,1,0,0,6.43,6.43,0,0,0-.71-.32l-.17-.06-.57-.18-.25-.06-.54-.1-.23,0a6.47,6.47,0,0,0-.76-.05,6.78,6.78,0,0,0-1.68.21,6.69,6.69,0,0,0-1.59.61L330,3.75a7,7,0,0,0,.8-3.75H317a6.9,6.9,0,0,0,2,5.37A6.9,6.9,0,0,0,323.85,7.4ZM514.22,111.87l2.83,2.83h0l-2.83,2.83,2.83-2.83Zm-117-35.25-3.27,3.27,3.27-3.27h0L400,79.45Zm81.8,0h0l-2.82,2.83L479,76.62l-2.82-2.82Zm-2.82,6.92a6.9,6.9,0,0,0,3.27-.82l28.7,28.71a7,7,0,0,0,0,6.54l-28.7,28.7a7,7,0,0,0-3.27-.82,6.58,6.58,0,0,0-1.71.22,6.29,6.29,0,0,0-1.56.6L444.17,118a6.9,6.9,0,0,0,.82-3.27c0-.26,0-.52,0-.77,0-.08,0-.15,0-.23a5.12,5.12,0,0,0-.1-.54l-.06-.25c-.05-.19-.11-.37-.17-.56a1.07,1.07,0,0,1-.07-.19,6.51,6.51,0,0,0-.33-.71v0l28.71-28.71A6.84,6.84,0,0,0,476.15,83.54Zm-35.25-45h0l-2.83-2.83Zm-2.83,6.92a6.84,6.84,0,0,0,3.27-.82l28.71,28.7a6.89,6.89,0,0,0,0,6.54L441.34,108.6a6.84,6.84,0,0,0-3.27-.82,6.47,6.47,0,0,0-.76,0,2,2,0,0,0-.24,0l-.53.1-.26.06-.54.17-.2.07c-.24.1-.48.21-.71.33h0L406.1,79.89a6.9,6.9,0,0,0,0-6.6l0,.06,28.7-28.7A6.9,6.9,0,0,0,438.07,45.47ZM368,35.28l28.7-28.7a6.93,6.93,0,0,0,6.54,0L432,35.28a7,7,0,0,0,0,6.54l-28.7,28.71.08,0a7,7,0,0,0-3.35-.86,6.88,6.88,0,0,0-3.33.86l.06,0L368,41.82A7,7,0,0,0,368,35.28Z"/><path class="cls-1" d="M356.9,5.23l.14.14a6.9,6.9,0,0,0,9.78,0,6.84,6.84,0,0,0,2-4.65,5.77,5.77,0,0,0,0-.72H355a7,7,0,0,0,1,4.06A7.09,7.09,0,0,0,356.9,5.23Z"/><path class="cls-1" d="M552.29,7.4a6.92,6.92,0,0,0,4.9-2,6.89,6.89,0,0,0,2-4.9c0-.15,0-.31,0-.47H545.4a5.77,5.77,0,0,0,0,.72,6.84,6.84,0,0,0,2,4.65A6.9,6.9,0,0,0,552.29,7.4Z"/><path class="cls-1" d="M666.52,7.4a6.9,6.9,0,0,0,4.89-2,6.9,6.9,0,0,0,2-5.37H659.62a6.91,6.91,0,0,0,6.9,7.4Z"/><path class="cls-1" d="M776.93,6.26a6.9,6.9,0,0,0,3.8,1.14h0A6.91,6.91,0,0,0,787.65.47c0-.15,0-.31,0-.47H773.84c0,.16,0,.32,0,.47a6.89,6.89,0,0,0,2,4.9A7.07,7.07,0,0,0,776.93,6.26Z"/><path class="cls-1" d="M90.52,43.44a6.92,6.92,0,1,0,4.89-11.81,7,7,0,0,0-3.27.82L59.69,0H55l-.48.48,34.8,34.8A6.93,6.93,0,0,0,90.52,43.44Z"/><path class="cls-1" d="M165.46,41.82l-28.7,28.71a6.92,6.92,0,1,0,2.82,2.82l28.71-28.7a6.92,6.92,0,1,0,3.27-13,7,7,0,0,0-3.27.82L135.84,0h-4.71l-.47.48,34.8,34.8A7,7,0,0,0,165.46,41.82Z"/><path class="cls-1" d="M659.7,37.35a6.92,6.92,0,0,0,6.82,8.12h0A6.88,6.88,0,0,0,670.76,44a5.77,5.77,0,0,0,.65-.57l.07-.08a7.48,7.48,0,0,0,.73-.87,7.21,7.21,0,0,0,.7-1.35,6.92,6.92,0,0,0-.3-5.86l28.71-28.7a7,7,0,0,0,3.27.82,6.9,6.9,0,0,0,4.89-2,6.9,6.9,0,0,0,2-5.37H697.69a7,7,0,0,0,.8,3.75l-28.71,28.7a7,7,0,0,0-3.26-.82,7,7,0,0,0-3.28.82L630.79,0h-4.7l-.48.48,34.81,34.8A6.9,6.9,0,0,0,659.7,37.35Z"/><path class="cls-1" d="M784,32.45a7,7,0,0,0-3.28-.82h0a6.56,6.56,0,0,0-1.7.22,6.29,6.29,0,0,0-1.56.6L748.76,3.75a7,7,0,0,0,.8-3.75H745l.48.48h0L745,0h-9.24a7,7,0,0,0,.79,3.75l-28.7,28.7a7,7,0,0,0-3.27-.82,6.93,6.93,0,0,0-6.1,10.19L669.78,70.53a6.56,6.56,0,0,0-1.59-.62,6.9,6.9,0,0,0-5,.62l-28.7-28.71a6.92,6.92,0,0,0-9.37-9.37l-28.7-28.7A6.94,6.94,0,0,0,597.26,0h-4.54l.48.48h0L592.72,0h-9.25a7.06,7.06,0,0,0,.8,3.75l-28.71,28.7a7,7,0,0,0-3.27-.82,6.47,6.47,0,0,0-.76.05l-.24,0-.53.1-.26.06q-.27.07-.54.18l-.2.07a6.43,6.43,0,0,0-.71.32h0l-28.7-28.7a7,7,0,0,0,.8-3.75h-4.55l.48.48h0l-2.83,2.83L517.05.48,516.57,0h-9.24a7,7,0,0,0,.79,3.75l-28.7,28.7a7.11,7.11,0,0,0-2.43-.77,7.89,7.89,0,0,0-.84-.05,6.58,6.58,0,0,0-1.71.22,6.29,6.29,0,0,0-1.56.6L444.17,3.75A7,7,0,0,0,445,0H431.18a6.9,6.9,0,0,0,2,5.37,6.9,6.9,0,0,0,4.89,2,7,7,0,0,0,3.27-.82l28.71,28.7a6.83,6.83,0,0,0-.77,2.43,7.89,7.89,0,0,0,0,.84q0,.33,0,.66a6.92,6.92,0,0,0,10.16,5.44l28.7,28.7a6.92,6.92,0,0,0,6.1,10.19,6.87,6.87,0,0,0,3.27-.82l28.71,28.71,0-.07a7,7,0,0,0-.86,3.34,6.92,6.92,0,1,0,13-3.35.35.35,0,0,1,0,.08L587.1,82.72a6.93,6.93,0,0,0,6.54,0l28.7,28.71a7,7,0,0,0,0,6.54l-28.7,28.7a7,7,0,0,0-3.27-.82,6.93,6.93,0,0,0-6.1,10.19l-28.71,28.71a6.93,6.93,0,0,0-8.16,1.2,6.91,6.91,0,0,0-1.2,8.16l-28.71,28.71.08.05a6.88,6.88,0,0,0-6.7,0l.08-.05-28.71-28.71a5.8,5.8,0,0,0,.4-.88l.08-.26c.07-.22.13-.43.18-.66L483,192c0-.21.06-.42.07-.63s0-.22,0-.33a5,5,0,0,0,0-.67,2.44,2.44,0,0,0,0-.27,7,7,0,0,0-.17-.93.35.35,0,0,0,0-.11,7.3,7.3,0,0,0-.26-.79c0-.11-.1-.2-.14-.3s-.11-.26-.18-.38l34.81-34.81-2.83-2.83-34.8,34.81a6.93,6.93,0,0,0-6.54,0L444.17,156a6.92,6.92,0,0,0-6.1-10.19,7,7,0,0,0-3.27.82L400,111.87l-2.83,2.83L432,149.5a7,7,0,0,0,0,6.54l-28.7,28.71a6.87,6.87,0,0,0-3.27-.82h0a6.87,6.87,0,0,0-3.27.82L368,156a6.92,6.92,0,0,0-9.37-9.37L330,118a7,7,0,0,0,.62-5,7.18,7.18,0,0,0-.62-1.59l28.71-28.71a6.93,6.93,0,0,0,8.16-1.2,6.92,6.92,0,0,0-4.89-11.81,6.84,6.84,0,0,0-3.27.82L330,41.82a6.93,6.93,0,0,0-6.1-10.19,7,7,0,0,0-3.27.82l-32-32L288.13,0h-4.7L283,.48h0l-32,32a6.92,6.92,0,1,0,2.83,2.83l32-32,32,32a6.92,6.92,0,0,0,9.37,9.37l28.71,28.7a7,7,0,0,0,0,6.54L327.12,108.6a6.9,6.9,0,0,0-6.6,0l.06,0-34.8-34.8L283,76.62l34.8,34.81a7,7,0,0,0,0,6.54L321,114.7h0L317.75,118l-28.7,28.7a7,7,0,0,0-3.27-.82,6.92,6.92,0,0,0,0,13.84,7,7,0,0,0,3.27-.82l28.7,28.71a6.93,6.93,0,0,0,0,6.53l-28.7,28.71a6.91,6.91,0,0,0-6.62.05l.08-.05L253.8,194.11a6.91,6.91,0,0,0-6.09-10.18,6.84,6.84,0,0,0-3.27.82L215.73,156a6.93,6.93,0,0,0-6.1-10.19,7,7,0,0,0-3.27.82l-34.8-34.8-2.83,2.83,34.8,34.8a6.92,6.92,0,0,0,9.37,9.37l28.71,28.71a6.91,6.91,0,0,0,6.1,10.18,6.83,6.83,0,0,0,3.26-.82l28.71,28.71a6.92,6.92,0,0,0,11,8.16l.13-.13a6.91,6.91,0,0,0,1.08-8l28.7-28.71a6.93,6.93,0,0,0,6.54,0l28.71,28.71a6.92,6.92,0,1,0,6.1-3.65,6.84,6.84,0,0,0-3.27.82L330,194.11a6.92,6.92,0,0,0-9.37-9.36L291.88,156a7,7,0,0,0,0-6.54l28.7-28.7a7,7,0,0,0,3.27.81,6.87,6.87,0,0,0,3.27-.82l28.71,28.71a6.93,6.93,0,0,0,6.1,10.19,7,7,0,0,0,3.27-.82l28.7,28.71a7,7,0,0,0-.82,3.15,6.91,6.91,0,0,0,2,5l.05,0a6.88,6.88,0,0,0,4.84,2h0a6.87,6.87,0,0,0,3.27-.82L432,225.65a7,7,0,0,0,0,6.54l-28.7,28.7a7,7,0,0,0-3.27-.82,6.93,6.93,0,0,0-6.1,10.19L365.2,299a6.05,6.05,0,0,0-.95-.41,1.61,1.61,0,0,0-.29-.09,6,6,0,0,0-.73-.19l-.29,0a7,7,0,0,0-1-.08c-.26,0-.51,0-.77,0l-.23,0a5.12,5.12,0,0,0-.54.1l-.26.06a4.68,4.68,0,0,0-.53.17l-.21.07a6.43,6.43,0,0,0-.71.32l0,0-34.81-34.81L321,267h0l-32,32a6.92,6.92,0,1,0,0,12.19l28.7,28.71a6.77,6.77,0,0,0-.57,1.47c0,.13-.06.26-.09.39a5.81,5.81,0,0,0-.11.71,6.9,6.9,0,0,0,.77,4l-28.7,28.7a6.82,6.82,0,0,0-2.43-.76,5.93,5.93,0,0,0-.84-.06,7,7,0,0,0-3.27.82l-28.71-28.7a6.92,6.92,0,0,0-6.09-10.19,6.84,6.84,0,0,0-3.27.82l-28.71-28.71a7,7,0,0,0,0-6.54l34.8-34.8-2.82-2.83L212.9,299a6.92,6.92,0,1,0,0,12.19l28.71,28.71a6.92,6.92,0,0,0,9.36,9.37l28.71,28.7a6.94,6.94,0,0,0-.58,5.07,7.37,7.37,0,0,0,.58,1.47L251,413.19l.08,0a7,7,0,0,0-3.34-.86,6.86,6.86,0,0,0-3.35.87l.08-.05-28.71-28.71a6.93,6.93,0,0,0-6.1-10.19,7,7,0,0,0-3.27.82l-28.7-28.7a6.92,6.92,0,0,0-9.37-9.37l-28.71-28.71a6.92,6.92,0,0,0-9.37-9.36l-28.7-28.71a6.87,6.87,0,0,0,.82-3.27,7,7,0,0,0-.87-3.35.35.35,0,0,0,.05.08l28.7-28.7a7,7,0,0,0,3.27.82,6.92,6.92,0,0,0,6.1-10.19l34.81-34.8L171.56,188l-34.8,34.8a6.92,6.92,0,0,0-9.37,9.37l-28.71,28.7.08.05a6.87,6.87,0,0,0-6.69,0l.07-.05-28.7-28.7a6.92,6.92,0,0,0-9.37-9.37L25.36,194.11a6.9,6.9,0,0,0,0-6.6.43.43,0,0,1,0,.07l34.81-34.81-2.83-2.83L22.53,184.75l.08.05a6.86,6.86,0,0,0-3.35-.87,7,7,0,0,0-3.34.86l.07,0-16-16v5.66l13.17,13.17a6.91,6.91,0,0,0,6.09,10.18,6.84,6.84,0,0,0,3.27-.82l28.71,28.71a6.93,6.93,0,0,0,6.1,10.19,7,7,0,0,0,3.27-.82l28.7,28.7,0-.07a6.89,6.89,0,0,0,0,6.61L60.61,299A6.94,6.94,0,0,0,54,299l.08,0L19.26,264.16,0,283.43v5.65l19.26-19.26,32,32a6.92,6.92,0,0,0,11,8.17l.12-.13a6.93,6.93,0,0,0,1.09-8l28.7-28.7a6.93,6.93,0,0,0,6.54,0l28.71,28.7a6.92,6.92,0,0,0,9.37,9.37l28.7,28.71a6.91,6.91,0,0,0,6.1,10.18,7,7,0,0,0,3.27-.81l28.7,28.7a6.92,6.92,0,0,0,9.37,9.37L241.61,416a6.91,6.91,0,0,0,6.1,10.18,6.83,6.83,0,0,0,3.26-.82l28.71,28.71a7,7,0,0,0,0,6.54L251,489.34a6.93,6.93,0,0,0-8.16,1.2,6.92,6.92,0,0,0-.29,9.46H255.1l-1.3-1.3a7,7,0,0,0,0-6.54l28.71-28.7a6.93,6.93,0,0,0,6.54,0l28.7,28.7,0-.06a7,7,0,0,0-.85,3.32,6.91,6.91,0,0,0,.82,3.28l-1.3,1.3h14.79l-1.3-1.3a7,7,0,0,0,0-6.54l28.71-28.7a6.92,6.92,0,0,0,9.36-9.37l28.71-28.71a6.93,6.93,0,0,0,6.54,0L432,454.09a7,7,0,0,0,0,6.54l-28.7,28.71A6.91,6.91,0,0,0,394.82,500H407.4l-1.31-1.3a6.92,6.92,0,0,0,0-6.54l28.7-28.7a7,7,0,0,0,3.27.82,6.92,6.92,0,1,0,0-13.84,7,7,0,0,0-3.27.82l-28.7-28.7a7,7,0,0,0,0-6.54l28.7-28.71a6.93,6.93,0,0,0,6.54,0L470.05,416a6.92,6.92,0,1,0,2.83-2.83l-28.71-28.71a6.93,6.93,0,0,0,0-6.54l34.8-34.8-2.82-2.83-34.81,34.8a7,7,0,0,0-3.27-.82h0a7,7,0,0,0-3.27.82l-28.7-28.7a7,7,0,0,0,0-6.54l28.7-28.71a6.92,6.92,0,0,0,9.37-9.37l28.71-28.7a6.93,6.93,0,0,0,6.54,0l28.7,28.7a6.92,6.92,0,0,0,6.1,10.19,6.87,6.87,0,0,0,3.27-.82l28.71,28.71a6.89,6.89,0,0,0,0,6.54l-28.71,28.7a7,7,0,0,0-3.27-.82,6.92,6.92,0,1,0,6.1,3.65l28.7-28.7a7,7,0,0,0,3.27.81A6.92,6.92,0,1,0,549,337l-28.7-28.7a6.92,6.92,0,0,0-6.1-10.19A6.87,6.87,0,0,0,511,299l-28.71-28.71a6.92,6.92,0,0,0-9.36-9.37l-28.71-28.7a6.92,6.92,0,0,0-9.37-9.37l-28.7-28.71a6.83,6.83,0,0,0,.82-3.26,6.49,6.49,0,0,0-.05-.77l0-.23c0-.19-.06-.37-.1-.54l-.06-.25c-.05-.19-.11-.37-.18-.56l-.06-.19c-.1-.24-.21-.48-.33-.71v0l28.7-28.71a6.93,6.93,0,0,0,6.54,0l28.71,28.71v0a6.51,6.51,0,0,0-.33.71,1.18,1.18,0,0,0-.07.2c-.06.18-.12.36-.17.54l-.06.26a4.51,4.51,0,0,0-.1.53c0,.08,0,.16,0,.24,0,.25,0,.51,0,.76a6.91,6.91,0,0,0,2,4.9,6.44,6.44,0,0,0,.86.72,6.93,6.93,0,0,0,7.31.48l28.7,28.71a6.69,6.69,0,0,0-.71,2.07,6.92,6.92,0,0,0,6.81,8.12h0a7,7,0,0,0,3.27-.82l28.71,28.7a6.92,6.92,0,1,0,6.09-3.65,7,7,0,0,0-3.27.82l-28.7-28.7a6.89,6.89,0,0,0-.06-6.63l.06.09L549,196.94a6.91,6.91,0,0,0,9.37-9.36l28.71-28.71a6.93,6.93,0,0,0,6.54,0l28.7,28.71a6.93,6.93,0,0,0,0,6.53l-28.7,28.71a6.92,6.92,0,1,0-3.27,13,7,7,0,0,0,3.27-.82l28.7,28.7,0-.07a6.89,6.89,0,0,0,0,6.61L593.64,299a6.92,6.92,0,1,0,0,12.19l28.7,28.71a.18.18,0,0,1,0-.07,6.92,6.92,0,1,0,12.1,0,.18.18,0,0,1,0,.07l28.7-28.71a6.91,6.91,0,0,0,3.28.82,6.83,6.83,0,0,0,3.26-.82l28.71,28.71a6.92,6.92,0,1,0,6.1-3.65,6.84,6.84,0,0,0-3.27.82l-28.71-28.7a6.92,6.92,0,0,0-9.37-9.37l-28.7-28.71a7,7,0,0,0,.82-3.27,6.88,6.88,0,0,0-.86-3.33l0,.06,28.7-28.7a7,7,0,0,0,3.28.82,7,7,0,0,0,3.26-.82l28.71,28.7a.35.35,0,0,1,0-.08,6.91,6.91,0,1,0,12.1,0l0,.07L739.39,235a7,7,0,0,0,3.27.82,6.92,6.92,0,1,0-3.27-13l-28.71-28.71a6.91,6.91,0,0,0-6.09-10.18,6.84,6.84,0,0,0-3.27.82L672.61,156a6.92,6.92,0,0,0-6.09-10.19,7,7,0,0,0-3.28.82L634.54,118a6.92,6.92,0,0,0-9.37-9.37l-28.7-28.71a6.92,6.92,0,0,0-9.37-9.36L558.39,41.82a6.87,6.87,0,0,0,.82-3.27,7.2,7.2,0,0,0-.2-1.67,6.8,6.8,0,0,0-.62-1.6L587.1,6.58a7,7,0,0,0,3.27.82,7,7,0,0,0,3.27-.82l28.7,28.7a6.92,6.92,0,0,0,9.37,9.37l28.71,28.7a6.91,6.91,0,0,0,6.1,10.19h0a6.87,6.87,0,0,0,4.24-1.45c.23-.18.44-.37.65-.57l.07-.08a6.92,6.92,0,0,0,1.13-8.09l28.71-28.7a6.93,6.93,0,0,0,6.54,0l28.7,28.7a6.92,6.92,0,0,0,6.1,10.19,6.87,6.87,0,0,0,3.27-.82l28.71,28.71a6.93,6.93,0,0,0,1.17,8.13l0,0a7.07,7.07,0,0,0,1.09.89,7,7,0,0,0,3.8,1.13h0a7,7,0,0,0,3.28-.81l16,16v-5.66L786.83,118a6.93,6.93,0,0,0,0-6.54L800,98.26V92.6l-16,16a6.91,6.91,0,0,0-3.28-.82h0a7,7,0,0,0-1.7.21,6.74,6.74,0,0,0-1.56.61L748.76,79.89a6.92,6.92,0,0,0-9.37-9.36L710.68,41.82a6.89,6.89,0,0,0,0-6.54l28.71-28.7a7,7,0,0,0,3.27.82,7,7,0,0,0,3.27-.82l28.71,28.7a6.93,6.93,0,0,0,1.17,8.13l0,0a6.53,6.53,0,0,0,1.09.89,6.9,6.9,0,0,0,3.8,1.14h0a6.91,6.91,0,0,0,6.92-6.92,7.2,7.2,0,0,0-.2-1.67,6.8,6.8,0,0,0-.62-1.6L800,22.11V16.46ZM291.88,308.33a7,7,0,0,0,0-6.54l32-32,32,32-.06.14c0,.09-.09.18-.13.27a5.46,5.46,0,0,0-.26.67,2.81,2.81,0,0,0-.1.31,6.08,6.08,0,0,0-.16.74c0,.08,0,.16-.05.23a8.06,8.06,0,0,0-.06,1,1.79,1.79,0,0,0,0,.23,6.51,6.51,0,0,0,.07.76l.06.32q.07.35.18.69c0,.09.05.19.09.28a5.81,5.81,0,0,0,.4.92L327.12,337a6.9,6.9,0,0,0-6.6,0l.06,0ZM432,377.94a7,7,0,0,0,0,6.54l-28.7,28.71a6.92,6.92,0,0,0-9.37,9.37l-28.7,28.7a7,7,0,0,0-3.27-.82,6.93,6.93,0,0,0-6.1,10.19l-28.71,28.71a6.93,6.93,0,0,0-6.54,0l-28.7-28.71a6.92,6.92,0,0,0-9.37-9.37l-28.71-28.7a6.93,6.93,0,0,0-.05-6.63.41.41,0,0,1,.05.09l28.71-28.71a6.87,6.87,0,0,0,3.27.82l.66,0a7,7,0,0,0,6-5,7,7,0,0,0-.56-5.16l28.7-28.7A6.88,6.88,0,0,0,323,350a5.92,5.92,0,0,0,.84.05,7,7,0,0,0,3.27-.81l28.71,28.7a7,7,0,0,0,0,6.54l-28.71,28.71A6.92,6.92,0,1,0,330,416l28.71-28.71a6.91,6.91,0,0,0,8.16-1.21l.06-.06a6.9,6.9,0,0,0,1.14-8.1l28.71-28.7a7,7,0,0,0,6.54,0Zm0-69.61L403.27,337a6.92,6.92,0,0,0-9.37,9.37l-28.7,28.7a7,7,0,0,0-3.27-.82,6.88,6.88,0,0,0-3.33.86l.06,0L330,346.41a7,7,0,0,0,0-6.54l28.71-28.71a6.93,6.93,0,0,0,8.16-1.2,6.92,6.92,0,0,0,1.2-8.17l28.71-28.7a6.93,6.93,0,0,0,6.54,0l28.7,28.7.06-.08a6.94,6.94,0,0,0-.06,6.62Zm6.1-72.49a7,7,0,0,0,3.27-.82l28.71,28.7a6.89,6.89,0,0,0,0,6.54L441.34,299a6.87,6.87,0,0,0-3.27-.82h0a6.9,6.9,0,0,0-3.27.82l-28.7-28.71a7,7,0,0,0,0-6.54L434.8,235A7,7,0,0,0,438.07,235.84Zm2.83-83.07-2.83-2.83,2.83,2.83Zm152.3,0-2.83-2.83,2.83,2.83Zm67.22,149a6.89,6.89,0,0,0,0,6.54L631.71,337l.08,0a6.86,6.86,0,0,0-3.35-.87,7,7,0,0,0-3.34.86l.07,0-28.7-28.7a7,7,0,0,0,0-6.55l28.7-28.7a6.93,6.93,0,0,0,6.54,0Zm-28.71-40.9.08.05a6.87,6.87,0,0,0-6.69,0l.07-.05-28.7-28.7a7,7,0,0,0,0-6.54l28.7-28.71a6.93,6.93,0,0,0,6.54,0l28.71,28.71a6.89,6.89,0,0,0,0,6.54Zm37.63-32-2.82,2.83,2.82-2.83-2.82-2.83,2.82,2.83Zm-40.9-107.31a6.87,6.87,0,0,0,3.27-.82l28.71,28.71a6.92,6.92,0,0,0,9.36,9.37l28.71,28.71a6.92,6.92,0,0,0,9.37,9.36l28.7,28.71a7,7,0,0,0,0,6.54l-28.7,28.7.06.05a6.79,6.79,0,0,0-3.33-.87,7,7,0,0,0-3.35.87l.08-.05-28.71-28.7a6.92,6.92,0,0,0-9.37-9.37l-28.7-28.71a6.92,6.92,0,0,0-9.37-9.36L596.47,156a7,7,0,0,0,0-6.54l28.7-28.7A7,7,0,0,0,628.44,121.61Zm-35.24-45h0l-2.83-2.82Zm-8.93-3.27a7,7,0,0,0,0,6.54L555.56,108.6l.06,0a6.88,6.88,0,0,0-6.66,0l.06,0-28.7-28.71A6.92,6.92,0,0,0,511,70.53L482.24,41.82a6.89,6.89,0,0,0,0-6.54L511,6.58a7,7,0,0,0,3.27.82,7,7,0,0,0,3.27-.82l28.71,28.7v0a6,6,0,0,0-.4.9l-.06.18a8,8,0,0,0-.24.93s0,.09,0,.13a5.47,5.47,0,0,0-.08.9.57.57,0,0,0,0,.13,7.46,7.46,0,0,0,.06,1c0,.07,0,.13,0,.2a7.93,7.93,0,0,0,.21.94l0,.08a7,7,0,0,0,.34.86s.05.1.08.16a7.84,7.84,0,0,0,.49.83l.12.16a7.18,7.18,0,0,0,.67.79,6.9,6.9,0,0,0,4.89,2,8.08,8.08,0,0,0,.85,0,7.17,7.17,0,0,0,1.64-.41,6.91,6.91,0,0,0,.78-.36Zm123.14-34.8-2.82-2.83,2.83,2.83Z"/><polygon class="cls-1" points="22.09 38.55 19.26 35.72 16.43 38.55 16.44 38.55 0 54.99 0 60.64 19.26 41.38 22.09 38.55 22.09 38.55"/><path class="cls-1" d="M549,70.53l-34.8-34.81-2.83,2.83,34.81,34.8A6.9,6.9,0,1,0,549,70.53Z"/><path class="cls-1" d="M780.73,69.71a6.75,6.75,0,0,0-1.7.21,6.74,6.74,0,0,0-1.56.61L742.66,35.72l-2.83,2.83,34.81,34.8a6.9,6.9,0,0,0-.77,2.43,5.92,5.92,0,0,0,0,.84,6.89,6.89,0,0,0,2,4.86l0,0a7,7,0,0,0,1.09.88,6.9,6.9,0,0,0,3.8,1.14h0a6.89,6.89,0,0,0,4.9-2,7.32,7.32,0,0,0,1.23-1.68,6.94,6.94,0,0,0,0-6.49L800,60.19V54.53l-16,16A6.91,6.91,0,0,0,780.73,69.71Z"/><polygon class="cls-1" points="19.26 73.8 0 93.06 0 98.72 22.09 76.62 19.26 73.8"/><path class="cls-1" d="M19.26,121.61a6.91,6.91,0,0,0,6.1-10.18L54.07,82.72a6.92,6.92,0,1,0,0-12.19l-32-32-2.83,2.83,32,32a7,7,0,0,0,0,6.54L22.53,108.6a6.84,6.84,0,0,0-3.27-.82A6.91,6.91,0,0,0,13.17,118L0,131.13v5.66l16-16A7,7,0,0,0,19.26,121.61Z"/><path class="cls-1" d="M742.66,145.85a7,7,0,0,0-3.27.82l-34.8-34.8-2.83,2.83,34.8,34.8a6.92,6.92,0,1,0,6.1-3.65Z"/><path class="cls-1" d="M785.63,147.88a6.91,6.91,0,0,0-8.16-1.21L748.76,118a6.92,6.92,0,0,0-9.37-9.37l-32-32h0l-2.82-2.82-34.81,34.8a6.83,6.83,0,0,0-3.26-.82,6.91,6.91,0,0,0-3.28.82l-28.7-28.71a6.92,6.92,0,0,0-9.37-9.36l-34.8-34.81-2.83,2.83,34.8,34.8a6.92,6.92,0,0,0,6.1,10.19,6.87,6.87,0,0,0,3.27-.82l28.71,28.71a6.71,6.71,0,0,0-.72,2.07,6.91,6.91,0,0,0,6.82,8.11h0a6.93,6.93,0,0,0,3.26-.81l28.71,28.7a6.92,6.92,0,0,0,6.1,10.19,7,7,0,0,0,3.27-.82l28.7,28.71.05-.08a6.9,6.9,0,0,0,1.16,8.24,6.89,6.89,0,0,0,4.89,2h0a6.87,6.87,0,0,0,3.27-.82l28.71,28.71a6.89,6.89,0,0,0,0,6.54l-28.71,28.7a7,7,0,0,0-3.27-.82,6.93,6.93,0,0,0-6.1,10.19L707.86,299l.06,0a6.88,6.88,0,0,0-3.33-.86,7,7,0,0,0-3.35.86l.08,0-34.8-34.81L663.69,267l34.8,34.8a.43.43,0,0,0,0-.07,6.92,6.92,0,0,0,9.33,9.44l28.7,28.71a7,7,0,0,0,0,6.54l-28.7,28.7a6.93,6.93,0,0,0-6.54,0l-32-32-2.82-2.83-34.81,34.8a6.93,6.93,0,0,0-6.54,0l-28.7-28.7A6.92,6.92,0,0,0,587.1,337l-28.71-28.71a6.89,6.89,0,0,0,0-6.61l0,.07,28.71-28.7a6.92,6.92,0,1,0,3.27-13,7,7,0,0,0-3.27.82l-28.71-28.7a7,7,0,0,0,0-6.54l34.81-34.8L590.37,188l-34.81,34.8A6.91,6.91,0,0,0,547.4,224a6.92,6.92,0,0,0,8.16,11l28.71,28.7a7,7,0,0,0,0,6.54L555.56,299l.07,0a6.92,6.92,0,0,0-6.68,0l.07,0-28.7-28.71a6.92,6.92,0,0,0-9.37-9.37l-28.71-28.7A6.92,6.92,0,0,0,476.15,222a6.84,6.84,0,0,0-3.27.82L438.07,188l-2.83,2.83,34.81,34.8a6.92,6.92,0,0,0,6.1,10.19,7,7,0,0,0,3.27-.82l28.7,28.7a6.92,6.92,0,0,0,9.37,9.37l28.71,28.7,0-.06a6.91,6.91,0,0,0,9.32,9.43l28.71,28.71a7,7,0,0,0,0,6.54l-28.71,28.7a7,7,0,0,0-3.27-.82,6.92,6.92,0,0,0-6.09,10.19l-28.71,28.71.08.05a6.88,6.88,0,0,0-6.7,0l.08-.05-28.71-28.71a6.89,6.89,0,0,0,0-6.54L511,349.24a7,7,0,0,0,3.27.81A6.92,6.92,0,1,0,511,337l-32-32-2.82-2.83L441.34,337a6.92,6.92,0,1,0,2.83,2.83l32-32,32,32a7,7,0,0,0,0,6.54l-28.7,28.7a7,7,0,0,0-3.27-.82,6.92,6.92,0,1,0,3.27,13L508.12,416l.05-.08a6.86,6.86,0,0,0-.87,3.35,7,7,0,0,0,.82,3.26l-28.7,28.71a6.91,6.91,0,0,0-6.62.05l.08-.05-34.81-34.8-2.83,2.83,34.81,34.8a.35.35,0,0,1,.05-.08,6.91,6.91,0,0,0-.05,6.62l-28.71,28.71A6.91,6.91,0,0,0,432.89,500h12.58l-1.3-1.3a7,7,0,0,0,0-6.54l28.71-28.7a7,7,0,0,0,3.27.82,7.38,7.38,0,0,0,1.32-.13,6.92,6.92,0,0,0,5.49-8,6.71,6.71,0,0,0-.72-2.07L511,425.38a6.91,6.91,0,0,0,9.32-9.44.35.35,0,0,1,.05.08L549,387.31a6.92,6.92,0,0,0,9.37-9.37l28.71-28.7a7,7,0,0,0,6.54,0l28.7,28.7a6.92,6.92,0,0,0,9.37,9.37L660.42,416a6.87,6.87,0,0,0,0,6.53l-28.71,28.71a7,7,0,0,0-3.27-.82,6.93,6.93,0,0,0-6.1,10.19l-28.7,28.71a6.93,6.93,0,0,0-6.54,0l-34.81-34.81-2.82,2.83,34.8,34.8,0,0a7.38,7.38,0,0,0-.36.81,1.34,1.34,0,0,1-.07.18c-.09.29-.17.58-.23.87l0,.17a8,8,0,0,0-.09.84s0,.07,0,.11a6.77,6.77,0,0,0,0,.9l0,.2a6.93,6.93,0,0,0,.16.89s0,.08,0,.12a7.35,7.35,0,0,0,.27.79,1.11,1.11,0,0,1,.07.16,6.16,6.16,0,0,0,.43.8,1.74,1.74,0,0,1,.11.18,6.74,6.74,0,0,0,.57.75v0h12.58l-1.3-1.3a7,7,0,0,0,0-6.54l28.7-28.7a7,7,0,0,0,3.27.82,6.93,6.93,0,0,0,6.1-10.19l28.7-28.71a6.92,6.92,0,1,0,0-12.19l-28.7-28.71a6.93,6.93,0,0,0,0-6.54l32-32,32,32a6.91,6.91,0,0,0,1.2,8.16l0,0a6.93,6.93,0,0,0,8.13,1.17L736.56,416l.06-.09a6.91,6.91,0,0,0,6,10.27h0a6.87,6.87,0,0,0,3.27-.82l28.71,28.71a6.87,6.87,0,0,1,1.2-1.62,7,7,0,0,1,1.63-1.21l-28.71-28.7a7,7,0,0,0,0-6.54l34.8-34.81-2.83-2.83-34.8,34.81a6.93,6.93,0,0,0-6.54,0l-28.71-28.71a6.93,6.93,0,0,0,0-6.54l28.71-28.7a7,7,0,0,0,3.27.81,6.92,6.92,0,1,0-3.27-13l-28.71-28.71a6.84,6.84,0,0,0,.82-3.27,7,7,0,0,0-.86-3.34l0,.07,28.71-28.7a6.92,6.92,0,0,0,9.37-9.37L777.47,235a7,7,0,0,0,3.26.82A7,7,0,0,0,784,235l16,16v-5.66l-13.17-13.16a6.92,6.92,0,0,0-6.1-10.19,6.83,6.83,0,0,0-3.26.82l-28.71-28.71a6.93,6.93,0,0,0,0-6.54l28.71-28.7a7,7,0,0,0,3.26.82,7,7,0,0,0,3.28-.82l16,16v-5.65L786.83,156A6.91,6.91,0,0,0,785.63,147.88Zm-11,8.16-28.71,28.71a6.93,6.93,0,0,0-6.54,0L710.68,156a6.92,6.92,0,0,0-9.36-9.37L672.61,118a6.89,6.89,0,0,0,0-6.54l32-32,32,32a6.93,6.93,0,0,0,9.37,9.37l28.71,28.7A6.89,6.89,0,0,0,774.64,156Zm8.92-3.27-2.83-2.83,2.83,2.83Z"/><path class="cls-1" d="M95.41,183.93a6.92,6.92,0,1,0,6.1,3.65l34.8-34.81-2.83-2.83-34.8,34.81A6.87,6.87,0,0,0,95.41,183.93Z"/><path class="cls-1" d="M661.62,195.74a6.93,6.93,0,0,0,8.16,1.2l28.71,28.71a6.92,6.92,0,1,0,6.1-3.65,6.84,6.84,0,0,0-3.27.82l-28.71-28.71a6.92,6.92,0,0,0-9.37-9.36l-34.8-34.81-2.83,2.83,34.81,34.81A6.91,6.91,0,0,0,661.62,195.74Z"/><path class="cls-1" d="M19.26,235.84a7,7,0,0,0,3.27-.82l28.71,28.7a6.92,6.92,0,1,0,2.83-2.83l-28.71-28.7A6.92,6.92,0,0,0,16,222.82l-16-16v5.65l13.17,13.17a6.89,6.89,0,0,0,0,6.54L0,245.35V251l16-16A7,7,0,0,0,19.26,235.84Z"/><polygon class="cls-1" points="777.91 190.84 800 212.94 800 207.28 780.73 188.02 777.91 190.84"/><path class="cls-1" d="M780.73,264.16,745.93,299a6.92,6.92,0,1,0,0,12.19l28.71,28.71s0-.05,0-.08a6.94,6.94,0,0,0,0,6.62l-28.71,28.7a7,7,0,0,0-3.27-.82,6.92,6.92,0,1,0,6.1,3.65l28.71-28.7a7.11,7.11,0,0,0,3.26.81h0a7,7,0,0,0,3.28-.81l16,16v-5.66l-13.17-13.16a6.91,6.91,0,0,0-.05-6.62.35.35,0,0,1,.05.08L800,326.7V321l-16,16,.07,0a6.88,6.88,0,0,0-6.68,0l.07,0-28.71-28.71a7,7,0,0,0,0-6.54l32-32L800,289.09v-5.66L783.56,267Z"/><path class="cls-1" d="M365.2,337a6.93,6.93,0,1,0,2.82,2.83l34.81-34.81L400,302.23Z"/><path class="cls-1" d="M365.2,413.19a6.92,6.92,0,0,0-9.37,9.36l-28.71,28.71a7,7,0,0,0-3.27-.82,6.88,6.88,0,0,0-3.33.86l.06,0-28.7-28.7a7,7,0,0,0,0-6.54l34.8-34.81-2.83-2.83-34.8,34.81a6.92,6.92,0,1,0,0,12.19l28.7,28.71a7.53,7.53,0,0,0-.44,1,6.92,6.92,0,0,0,11.39,7.2l0-.05a6.89,6.89,0,0,0,1.65-7.15,6.43,6.43,0,0,0-.44-1l28.71-28.71a6.93,6.93,0,0,0,8.16-1.2A6.91,6.91,0,0,0,368,416l34.81-34.81L400,378.38Z"/><path class="cls-1" d="M780.73,412.37a6.92,6.92,0,1,0,6.1,3.65L800,402.85v-5.66l-16,16A6.84,6.84,0,0,0,780.73,412.37Z"/><path class="cls-1" d="M13.17,460.63A6.95,6.95,0,0,0,16,463.46a7,7,0,0,0,3.27.82,6.92,6.92,0,1,0,0-13.84,7,7,0,0,0-3.27.82l-16-16v5.65l13.17,13.17A6.89,6.89,0,0,0,13.17,460.63Z"/><path class="cls-1" d="M785.63,452.47a6.87,6.87,0,0,1,1.2,1.62L800,440.92v-5.65l-16,16A6.92,6.92,0,0,1,785.63,452.47Z"/><path class="cls-1" d="M780.73,464.28h0a7,7,0,0,1-2.91-.64A7,7,0,0,0,780.73,464.28Z"/><path class="cls-1" d="M54.07,463.46a7,7,0,0,0,3.27.82,6.9,6.9,0,0,0,4.89-2l.12-.13a6.92,6.92,0,0,0,1.09-8l28.7-28.71a6.93,6.93,0,0,0,6.54,0l28.71,28.71a6.92,6.92,0,1,0,6.09-3.65,7,7,0,0,0-3.27.82l-28.7-28.7a7,7,0,0,0,0-6.54l28.7-28.71a6.93,6.93,0,0,0,6.54,0L165.46,416a6.92,6.92,0,1,0,2.83-2.83l-28.71-28.71a6.92,6.92,0,0,0-6.1-10.19,7,7,0,0,0-3.27.82l-34.8-34.8-2.83,2.83,34.81,34.8a6.89,6.89,0,0,0,0,6.54L98.68,413.19a6.87,6.87,0,0,0-3.27-.82,7,7,0,0,0-3.34.86l.07,0-34.8-34.81L22.53,413.19l.08,0a6.94,6.94,0,0,0-6.69,0l.07,0-16-16v5.66L13.17,416a6.91,6.91,0,0,0,6.09,10.18,6.84,6.84,0,0,0,3.27-.82l28.71,28.71a7,7,0,0,0,0,6.54L22.53,489.34a6.93,6.93,0,0,0-8.16,1.2,6.92,6.92,0,0,0-.29,9.46H24.45a6.92,6.92,0,0,0,.91-7.84Zm-28.71-40.9a6.94,6.94,0,0,0,0-6.62s0,.05,0,.08l32-32,32,32a.35.35,0,0,0,0-.08,6.91,6.91,0,0,0,0,6.62l-28.7,28.7a7,7,0,0,0-3.27-.82,6.86,6.86,0,0,0-3.35.87l.08-.05Z"/><path class="cls-1" d="M177.66,492.16l34.8-34.8-2.83-2.83-34.8,34.81A6.91,6.91,0,0,0,166.37,500H179l-1.3-1.3A7,7,0,0,0,177.66,492.16Z"/><path class="cls-1" d="M215.73,492.16l28.71-28.7a6.92,6.92,0,1,0,0-12.2l-28.71-28.7a6.92,6.92,0,0,0-9.37-9.37l-28.7-28.71a6.92,6.92,0,0,0-9.37-9.37l-28.71-28.7a6.92,6.92,0,0,0-9.37-9.37l-34.8-34.81L60.61,337a6.91,6.91,0,0,0-6.62,0l.08,0L19.26,302.23,0,321.5v5.66l19.26-19.27,32,32a7,7,0,0,0,0,6.54l-28.71,28.7.07,0a6.9,6.9,0,0,0-6.67,0l.06,0-16-16v5.66l13.17,13.16a6.92,6.92,0,1,0,12.15-.07.43.43,0,0,0,0,.07l28.71-28.7a7,7,0,0,0,6.54,0l28.7,28.7a6.92,6.92,0,1,0,6.1-3.65,7,7,0,0,0-3.27.82l-28.7-28.7a7,7,0,0,0,0-6.54l32-32,32,32a6.92,6.92,0,0,0,9.36,9.37l28.71,28.7a6.92,6.92,0,0,0,9.37,9.37L203.53,416a7,7,0,0,0,0,6.54l-28.7,28.7a6.92,6.92,0,0,0-6.61,0l.07,0-34.81-34.8-2.82,2.83,34.8,34.8a7,7,0,0,0,0,6.54l-28.71,28.71a6.93,6.93,0,0,0-6.54,0l-34.8-34.81-34.8,34.81a6.91,6.91,0,0,0-9.36,9.36L49.94,500H62.52a6.93,6.93,0,0,0,.92-7.84l32-32,32,32a6.92,6.92,0,0,0,.91,7.84h12.58l-1.3-1.3a7,7,0,0,0,0-6.54l28.71-28.7a7,7,0,0,0,3.27.82,6.93,6.93,0,0,0,4.89-2l.15-.16a6.35,6.35,0,0,0,.7-.87,7,7,0,0,0,.36-7.13l28.7-28.71a6.93,6.93,0,0,0,6.54,0l28.71,28.71a7,7,0,0,0,0,6.54L212.9,489.34A6.91,6.91,0,0,0,204.45,500H217l-1.31-1.3A6.92,6.92,0,0,0,215.73,492.16Z"/><path class="cls-1" d="M368,492.16l34.81-34.8L400,454.53l-34.8,34.81A6.91,6.91,0,0,0,356.74,500h12.58l-1.3-1.3A7,7,0,0,0,368,492.16Z"/><path class="cls-1" d="M557.19,490.54a6.94,6.94,0,0,0-8.17-1.2l-28.7-28.71a7,7,0,0,0,0-6.54l28.7-28.7a7,7,0,0,0,3.27.81,6.87,6.87,0,0,0,3.27-.82l28.71,28.71a6.92,6.92,0,0,0,10.24,8.81,6.46,6.46,0,0,0,.75-.65,6.88,6.88,0,0,0,1.16-8.23l.05.07,28.7-28.7a7,7,0,0,0,3.27.81,6.92,6.92,0,1,0-3.27-13l-32-32-2.83-2.83-34.81,34.81a6.92,6.92,0,0,0-9.36,9.37l-28.71,28.7a7,7,0,0,0-3.27-.82,6.93,6.93,0,0,0-6.1,10.19l-28.7,28.71A6.91,6.91,0,0,0,471,500h10.37a6.92,6.92,0,0,0,.91-7.84L511,463.46a6.93,6.93,0,0,0,6.54,0l28.71,28.7a6.92,6.92,0,0,0,.91,7.84h12.58l-1.3-1.3A6.92,6.92,0,0,0,557.19,490.54Zm1.2-74.52,32-32,32,32a7,7,0,0,0,0,6.54l-28.7,28.7.07,0a7,7,0,0,0-3.34-.86,6.82,6.82,0,0,0-3.34.87.18.18,0,0,1,.07-.05l-28.71-28.7A7,7,0,0,0,558.39,416Z"/><path class="cls-1" d="M780.73,488.52a6.83,6.83,0,0,0-3.26.82l-28.71-28.71a6.93,6.93,0,0,0-6.1-10.19,7,7,0,0,0-3.27.82l-28.71-28.7a6.92,6.92,0,0,0-6.09-10.19,6.84,6.84,0,0,0-3.27.82l-34.8-34.81-2.83,2.83L698.49,416a7,7,0,0,0,0,6.54l-28.71,28.7a6.92,6.92,0,0,0-9.36,9.37l-28.71,28.71A6.91,6.91,0,0,0,623.25,500h12.58l-1.3-1.3a7,7,0,0,0,0-6.54l28.7-28.7a7,7,0,0,0,3.28.82,7,7,0,0,0,3.26-.82l28.71,28.7a6.89,6.89,0,0,0-.58,5A6.77,6.77,0,0,0,699.4,500h10.37a6.91,6.91,0,0,0,.91-7.84l28.71-28.7a6.93,6.93,0,0,0,6.54,0l28.71,28.7a7,7,0,0,0,0,6.54l-1.3,1.3h12.58a6.9,6.9,0,0,0-5.19-11.48Zm-44.17-27.89-28.7,28.71a6.93,6.93,0,0,0-6.54,0l-28.71-28.71a6.89,6.89,0,0,0,0-6.54l28.71-28.7a7,7,0,0,0,6.54,0l28.7,28.71A7,7,0,0,0,736.56,460.63Z"/><path class="cls-1" d="M780.73,454.53l-2.82,2.83,6.09,6.1a7,7,0,0,1-3.27.82,7,7,0,0,0,3.28-.82l16,16V473.8l-13.17-13.17Z"/><polygon class="cls-1" points="88.02 500 93.67 500 95.41 498.26 97.15 500 102.81 500 95.41 492.61 88.02 500"/><polygon class="cls-1" points="514.22 492.61 506.82 500 512.48 500 514.22 498.26 515.96 500 521.62 500 517.05 495.43 514.22 492.61"/><polygon class="cls-1" points="663.69 495.43 668.25 500 673.91 500 666.51 492.61 663.69 495.43"/><polygon class="cls-1" points="735.27 500 740.92 500 745.49 495.43 742.66 492.61 735.27 500"/></g></g></svg>